# xmcd CD database file
#
# Track frame offsets:
#	150
#	54120
#	87590
#	137067
#	176008
#	219558
#	266317
#	334782
#
# Disc length: 4792 seconds
#
# Revision: 0
# Processed by: cddbd v1.5.2PL0 Copyright (c) Steve Scherf et al.
# Submitted via: CDex 1.70beta2
#
DISCID=6e12b608
DTITLE=Jeff Kaiser - The Choir Boys With Strings
DYEAR=2006
DGENRE=Jazz
TTITLE0=Needlework Alice
TTITLE1=Impromptu Lateral Drop
TTITLE2=Tobacconist From Rimini
TTITLE3=Frenchwoman Luggage Cart
TTITLE4=Adulterous Dishwasher
TTITLE5=Definitely Jack
TTITLE6=Rest Of The Skeleton
TTITLE7=Wir Sind Hier
EXTD=YEAR: 2006
EXTT0=
EXTT1=
EXTT2=
EXTT3=
EXTT4=
EXTT5=
EXTT6=
EXTT7=
PLAYORDER=
